# xmcd
#
# Track frame offsets:
#  150
#  16980
#  41414
#  54511
#  69979
#  94795
#  119770
#  142315
#  168266
#  190043
#  207491
#  221887
#  240677
#  266143
#
# Disc length: 3792 seconds
#
# Revision: 0
# Processed by: cddbd v1.5.1PL0 Copyright (c) Steve Scherf et al.
# Submitted via: Collectorz.com Music Collector 6.9
#
DISCID=d70ece0e
DTITLE=jack ingram and todd snider - Live At The Creighton Theatre, Conroe, Texas - Disc 1
DYEAR=2001
DGENRE=
TTITLE0=Stay All Night
TTITLE1=jack ingram - Hey You
TTITLE2=todd snider - Trouble
TTITLE3=jack ingram - There Ain't Nothing Wrong With That
TTITLE4=todd snider - Horseshoe Lake
TTITLE5=jack ingram - Pete, Jesus And Me
TTITLE6=todd snider - Lonely Girl
TTITLE7=jack ingram - Run To Me
TTITLE8=jack ingram - Biloxi
TTITLE9=todd snider - Missing You
TTITLE10=todd snider - Can't Complain
TTITLE11=jack ingram - Mustang Burn
TTITLE12=todd snider - Talking Seattle Grunge Rock Blues
TTITLE13=jack ingram - Fine Tune
EXTD=
EXTT0=
EXTT1=
EXTT2=
EXTT3=
EXTT4=
EXTT5=
EXTT6=
EXTT7=
EXTT8=
EXTT9=
EXTT10=
EXTT11=
EXTT12=
EXTT13=
PLAYORDER=
